<!--
  From https://github.com/vercel/hyper/blob/0ff1cb9584df097159f23431fdf5feafb80a9cb9/assets/icons.svg
-->
<svg display="none" version="1.1" xmlns="http://www.w3.org/2000/svg" xmlns:xlink="http://www.w3.org/1999/xlink">
  <defs>
    <symbol id="minimize-window" viewBox="0 0 10 10">
      <title>minimize window</title>
      <g fill="none" fill-rule="evenodd">
        <polygon points="0 0 10 0 10 10 0 10"/>
        <path stroke="currentColor" d="M9.5,5 L0.5,5" stroke-linecap="square"/>
      </g>
      <g fill="none" fill-rule="evenodd">
        <polygon points="0 0 10 0 10 10 0 10"/>
        <rect width="10" height="1" y="4.5" fill="currentColor"/>
      </g>
    </symbol>
    <symbol id="maximize-window" viewBox="0 0 10 10">
      <title>maximize window</title>
      <defs>
        <polygon id="maximize-window-a" points="0 0 10 0 10 10 0 10"/>
        <mask id="maximize-window-b" width="10" height="10" x="0" y="0">
          <use xlink:href="#maximize-window-a"/>
        </mask>
      </defs>
      <g fill="none" fill-rule="evenodd">
        <polygon fill="none" points="0 0 10 0 10 10 0 10"/>
        <use stroke="currentColor" stroke-width="2" mask="url(#maximize-window-b)" xlink:href="#maximize-window-a"/>
      </g>
    </symbol>
    <symbol id="restore-window" viewBox="0 0 10.2 10.2">
      <title>restore window</title>
      <defs>
        <mask id="restore-window-b" width="10.2" height="10.2" x="0" y="0">
          <use xlink:href="#restore-window-a"/>
        </mask>
      </defs>
      <g fill="none" fill-rule="evenodd">
        <path fill="currentColor"
              d='M2.1,0v2H0v8.1h8.2v-2h2V0H2.1z M7.2,9.2H1.1V3h6.1V9.2z M9.2,7.1h-1V2H3.1V1h6.1V7.1z' />
        <use stroke="currentColor" xlink:href="#restore-window-a"/>
      </g>
    </symbol>
    <symbol id="close-window" viewBox="0 0 10 10">
      <title>close window</title>
      <g fill="none" fill-rule="evenodd">
        <g stroke="currentColor" transform="translate(.25 .25)" stroke-linecap="square">
          <path d="M0.5,0.5 L9,9"/>
          <path d="M0.5,0.5 L9,9" transform="matrix(-1 0 0 1 9.5 0)"/>
        </g>
        <polygon points="0 0 10 0 10 10 0 10"/>
      </g>
    </symbol>
  </defs>
</svg>